<svg width="46" height="37" viewBox="0 0 46 37" fill="none" xmlns="http://www.w3.org/2000/svg">
<path d="M45.0772 18.1289C45.4116 18.2634 45.4116 18.7367 45.0772 18.8711L0.549247 36.7791C0.286402 36.8848 -3.8688e-06 36.6913 -3.85642e-06 36.408L-3.2317e-06 22.1161C-3.22302e-06 21.9176 0.145524 21.7491 0.341888 21.7203L18.9703 18.9851C19.4386 18.9163 19.4205 18.2348 18.9492 18.191L0.362983 16.4637C0.157295 16.4446 -2.97625e-06 16.272 -2.96722e-06 16.0655L-2.29085e-06 0.592005C-2.27847e-06 0.308699 0.286404 0.115183 0.549249 0.220893L45.0772 18.1289Z" fill="#063A64"/>
</svg>
